<svg width="14" height="12" viewBox="0 0 14 12" fill="none" xmlns="http://www.w3.org/2000/svg">
<path d="M10.124 0.500244C11.019 0.501253 11.8769 0.857656 12.5098 1.49048C13.103 2.0837 13.4538 2.87434 13.4961 3.70825L13.5 3.87622C13.4995 5.82939 12.034 7.67899 10.3926 9.11646C9.18103 10.1774 7.94815 10.9494 7.35645 11.2961L7.00293 11.4954L7 11.4973L6.99707 11.4963L6.64355 11.2961C6.05185 10.9494 4.81898 10.1774 3.60742 9.11646C1.96603 7.67899 0.500488 5.82939 0.5 3.87622C0.501009 2.98128 0.857412 2.1233 1.49023 1.49048C2.12292 0.857789 2.98026 0.501402 3.875 0.500244C5.01949 0.500244 5.99716 0.989555 6.60059 1.79321L7 2.32642L7.39941 1.79321C8.00267 0.989784 8.97995 0.500523 10.124 0.500244Z" fill="#333333"/>
<path d="M10.124 0.500244C11.019 0.501253 11.8769 0.857656 12.5098 1.49048C13.103 2.0837 13.4538 2.87434 13.4961 3.70825L13.5 3.87622C13.4995 5.82939 12.034 7.67899 10.3926 9.11646C9.18103 10.1774 7.94815 10.9494 7.35645 11.2961L7.00293 11.4954L7 11.4973L6.99707 11.4963L6.64355 11.2961C6.05185 10.9494 4.81898 10.1774 3.60742 9.11646C1.96603 7.67899 0.500488 5.82939 0.5 3.87622C0.501009 2.98128 0.857412 2.1233 1.49023 1.49048C2.12292 0.857789 2.98026 0.501402 3.875 0.500244C5.01949 0.500244 5.99716 0.989555 6.60059 1.79321L7 2.32642L7.39941 1.79321C8.00267 0.989784 8.97995 0.500523 10.124 0.500244Z" stroke="black"/>
<path d="M10.124 0.500244C11.019 0.501253 11.8769 0.857656 12.5098 1.49048C13.103 2.0837 13.4538 2.87434 13.4961 3.70825L13.5 3.87622C13.4995 5.82939 12.034 7.67899 10.3926 9.11646C9.18103 10.1774 7.94815 10.9494 7.35645 11.2961L7.00293 11.4954L7 11.4973L6.99707 11.4963L6.64355 11.2961C6.05185 10.9494 4.81898 10.1774 3.60742 9.11646C1.96603 7.67899 0.500488 5.82939 0.5 3.87622C0.501009 2.98128 0.857412 2.1233 1.49023 1.49048C2.12292 0.857789 2.98026 0.501402 3.875 0.500244C5.01949 0.500244 5.99716 0.989555 6.60059 1.79321L7 2.32642L7.39941 1.79321C8.00267 0.989784 8.97995 0.500523 10.124 0.500244Z" stroke="black" stroke-opacity="0.2"/>
</svg>
